<?xml version="1.0" standalone="no"?>
<!DOCTYPE svg PUBLIC "-//W3C//DTD SVG 20010904//EN"
 "http://www.w3.org/TR/2001/REC-SVG-20010904/DTD/svg10.dtd">
<svg version="1.0" xmlns="http://www.w3.org/2000/svg"
 width="200.000000pt" height="200.000000pt" viewBox="0 0 200.000000 200.000000"
 preserveAspectRatio="xMidYMid meet">
<metadata>
Created by potrace 1.14, written by Peter Selinger 2001-2017
</metadata>
<g transform="translate(0.000000,200.000000) scale(0.100000,-0.100000)"
fill="#000000" stroke="none">
<path d="M1219 1859 c42 -42 81 -123 81 -170 0 -61 -28 -137 -66 -174 -29 -29
-42 -35 -77 -35 -49 0 -102 29 -118 64 -17 37 -3 91 32 120 38 33 89 34 132 4
l30 -22 -6 37 c-12 73 -75 129 -165 143 -55 9 -104 -10 -146 -56 -57 -64 -74
-175 -37 -256 26 -56 141 -167 253 -245 137 -94 182 -143 207 -224 31 -101 27
-177 -20 -350 -7 -27 -14 -51 -15 -53 -1 -2 -53 11 -116 28 -157 44 -157 44
-118 19 141 -90 173 -115 200 -155 46 -65 60 -116 60 -211 0 -86 -18 -142 -54
-172 -51 -42 23 -22 141 38 179 91 340 264 418 449 57 135 69 201 69 362 1
118 -3 160 -21 226 -28 103 -72 199 -128 285 -54 80 -200 221 -278 267 -74 44
-202 99 -252 108 l-40 6 34 -33z"/>
<path d="M646 1845 c-120 -52 -181 -93 -278 -184 -134 -127 -216 -264 -264
-446 -26 -99 -26 -331 0 -430 27 -101 77 -213 130 -293 55 -83 200 -223 279
-270 74 -44 202 -99 252 -108 l40 -6 -37 38 c-45 47 -77 116 -78 165 0 61 28
137 66 174 29 29 42 35 77 35 49 0 102 -29 118 -64 17 -37 3 -91 -32 -120 -38
-33 -89 -34 -132 -4 l-30 22 6 -37 c12 -73 75 -129 165 -143 55 -9 104 10 146
56 57 64 74 175 37 256 -26 56 -141 167 -253 245 -137 94 -182 143 -207 224
-31 101 -27 177 20 350 7 28 14 52 16 54 1 2 33 -6 70 -17 74 -23 193 -52 193
-47 0 1 -37 24 -81 49 -156 91 -209 175 -209 332 0 88 12 126 53 171 11 13 18
25 16 28 -3 2 -40 -11 -83 -30z"/>
<path d="M956 1261 c-11 -4 -20 -18 -22 -32 -1 -13 -11 -49 -23 -79 -24 -63
-27 -167 -10 -269 10 -55 18 -72 54 -109 38 -41 44 -44 70 -35 19 6 29 17 31
34 1 13 11 49 23 79 23 63 27 167 10 268 -10 54 -18 73 -52 109 -40 44 -48 47
-81 34z"/>
</g>
</svg>
