<svg width="120" height="106" viewBox="0 0 120 106" fill="none" xmlns="http://www.w3.org/2000/svg">
<path d="M6.03466 2.93177C4.23066 2.93177 2.76265 4.40271 2.76265 6.21364V85.7948C2.76265 87.6 4.23066 89.0651 6.03466 89.0651H114.108C115.911 89.0651 117.376 87.6 117.376 85.7948V6.21364C117.376 4.40271 115.911 2.93177 114.108 2.93177H6.03466ZM114.108 91.0104H6.03466C3.15866 91.0104 0.817322 88.6708 0.817322 85.7948V6.21364C0.817322 3.33177 3.15866 0.986443 6.03466 0.986443H114.108C116.983 0.986443 119.321 3.33177 119.321 6.21364V85.7948C119.321 88.6708 116.983 91.0104 114.108 91.0104Z" fill="#100F0D"/>
<path d="M47.06 103.46H73.0827L71.1106 91.0104H49.0333L47.06 103.46ZM74.2253 105.405C74.224 105.405 74.2227 105.405 74.2227 105.405H45.9213C45.6373 105.405 45.3667 105.28 45.1827 105.064C44.9973 104.848 44.9173 104.562 44.96 104.28L47.2426 89.888C47.3173 89.4146 47.724 89.0651 48.2027 89.0651H71.94C72.4173 89.0651 72.8267 89.4146 72.9 89.888L75.1667 104.183C75.188 104.263 75.1987 104.347 75.1987 104.433C75.1987 104.969 74.7626 105.405 74.2253 105.405Z" fill="#100F0D"/>
<path d="M91.94 105.405H28.2026C27.6653 105.405 27.2293 104.969 27.2293 104.433C27.2293 103.895 27.6653 103.46 28.2026 103.46H91.94C92.4773 103.46 92.9133 103.895 92.9133 104.433C92.9133 104.969 92.4773 105.405 91.94 105.405Z" fill="#100F0D"/>
<path d="M60.0747 77.7197C58.28 77.7197 56.82 79.1812 56.82 80.9828C56.82 82.7745 58.28 84.2333 60.0747 84.2333C61.868 84.2333 63.3266 82.7745 63.3266 80.9828C63.3266 79.1812 61.868 77.7197 60.0747 77.7197ZM60.0747 86.1787C57.208 86.1787 54.876 83.8479 54.876 80.9828C54.876 78.1104 57.208 75.776 60.0747 75.776C62.94 75.776 65.272 78.1104 65.272 80.9828C65.272 83.8479 62.94 86.1787 60.0747 86.1787Z" fill="#100F0D"/>
<path d="M2.76665 72.8864L2.76265 85.7948C2.76265 87.6 4.23066 89.0651 6.03466 89.0651H114.108C115.911 89.0651 117.376 87.6 117.376 85.7948V72.8864H2.76665ZM114.108 91.0104H6.03466C3.15866 91.0104 0.817322 88.6708 0.817322 85.7948L0.82266 71.9146C0.82266 71.3771 1.25865 70.9427 1.79598 70.9427H118.348C118.885 70.9427 119.321 71.3771 119.321 71.9146V85.7948C119.321 88.6708 116.983 91.0104 114.108 91.0104Z" fill="#100F0D"/>
<path d="M85.124 17.4438L84.1027 19.2136C83.5413 20.1896 83.876 21.447 84.852 22.0162L96.2347 28.5839C96.544 28.764 96.8933 28.8588 97.248 28.8588C97.9787 28.8588 98.66 28.4667 99.024 27.8386L100.045 26.0694L85.124 17.4438ZM97.248 30.8027C96.5507 30.8027 95.864 30.6172 95.26 30.2678L83.876 23.6984C81.976 22.5907 81.324 20.1438 82.4173 18.2412L83.928 15.6292C84.056 15.4052 84.2693 15.2427 84.5173 15.176C84.768 15.1094 85.032 15.1438 85.256 15.2735L101.861 24.8719C102.325 25.1412 102.484 25.736 102.216 26.2011L100.707 28.812C99.996 30.0402 98.6707 30.8027 97.248 30.8027Z" fill="#100F0D"/>
<path d="M75.796 35.5948L89.0027 43.2292L94.3333 29.7349L84.8053 24.2307L75.796 35.5948ZM89.4933 45.6093C89.324 45.6093 89.156 45.5651 89.0067 45.4787L73.8493 36.7161C73.604 36.5735 73.4333 36.3333 73.38 36.0547C73.328 35.7771 73.3973 35.4907 73.5733 35.2693L83.804 22.3667C84.1027 21.9891 84.6346 21.888 85.052 22.1281L96.032 28.4708C96.448 28.712 96.6267 29.2224 96.4493 29.6693L90.3973 44.9932C90.2933 45.2573 90.08 45.4599 89.8133 45.5557C89.7093 45.5921 89.6013 45.6093 89.4933 45.6093Z" fill="#100F0D"/>
<path d="M69 38.6318L89.7733 50.6375L90.7947 48.8694C91.064 48.4 91.136 47.8479 90.9933 47.3172C90.852 46.7864 90.516 46.347 90.0467 46.0776L72.8093 36.1162C72.5013 35.9375 72.1533 35.8427 71.8 35.8427C71.0667 35.8427 70.3867 36.2334 70.0227 36.864L69 38.6318ZM90.128 52.9386C89.96 52.9386 89.7907 52.8948 89.6413 52.8079L67.1853 39.8307C66.72 39.5599 66.5613 38.9667 66.8293 38.5027L68.3373 35.8907C69.0493 34.6626 70.376 33.8984 71.8 33.8984C72.4973 33.8984 73.184 34.0839 73.7867 34.436L91.0187 44.3922C91.9373 44.9214 92.596 45.7812 92.8707 46.8162C93.148 47.847 93.008 48.9214 92.48 49.8402L90.9707 52.4522C90.8413 52.676 90.628 52.8375 90.38 52.9052C90.2974 52.9282 90.2133 52.9386 90.128 52.9386Z" fill="#100F0D"/>
<path d="M71.816 58.7402C71.652 58.7402 71.484 58.6984 71.332 58.6104C70.8653 58.3402 70.7067 57.747 70.9747 57.2812L78.06 44.9974C78.328 44.5318 78.9227 44.3708 79.388 44.6402C79.8533 44.9079 80.0133 45.5027 79.7453 45.9683L72.66 58.2531C72.4787 58.5651 72.152 58.7402 71.816 58.7402Z" fill="#100F0D"/>
<path d="M56.104 24.4651H18.7693C18.232 24.4651 17.7973 24.0292 17.7973 23.4932C17.7973 22.9563 18.232 22.5198 18.7693 22.5198H56.104C56.6413 22.5198 57.0773 22.9563 57.0773 23.4932C57.0773 24.0292 56.6413 24.4651 56.104 24.4651Z" fill="#100F0D"/>
<path d="M46.088 38.4412H18.7693C18.232 38.4412 17.7973 38.0042 17.7973 37.4683C17.7973 36.9318 18.232 36.4974 18.7693 36.4974H46.088C46.624 36.4974 47.06 36.9318 47.06 37.4683C47.06 38.0042 46.624 38.4412 46.088 38.4412Z" fill="#100F0D"/>
<path d="M56.104 52.4172H18.7693C18.232 52.4172 17.7973 51.9812 17.7973 51.4454C17.7973 50.9068 18.232 50.4719 18.7693 50.4719H56.104C56.6413 50.4719 57.0773 50.9068 57.0773 51.4454C57.0773 51.9812 56.6413 52.4172 56.104 52.4172Z" fill="#100F0D"/>
</svg>
