<svg width="72" height="119" viewBox="0 0 72 119" fill="none" xmlns="http://www.w3.org/2000/svg">
<path d="M26.7226 116.836H45.0026V87.8654H26.7226V116.836ZM45.9746 118.78H25.7506C25.2133 118.78 24.7786 118.345 24.7786 117.808V86.8947C24.7786 86.3573 25.2133 85.9214 25.7506 85.9214H45.9746C46.5106 85.9214 46.9466 86.3573 46.9466 86.8947V117.808C46.9466 118.345 46.5106 118.78 45.9746 118.78Z" fill="#100F0D"/>
<path d="M20.1226 85.9214H51.6026V81.2387H20.1226V85.9214ZM52.5759 87.8654H19.1492C18.6119 87.8654 18.1759 87.432 18.1759 86.8947V80.2667C18.1759 79.7294 18.6119 79.2947 19.1492 79.2947H52.5759C53.1132 79.2947 53.5479 79.7294 53.5479 80.2667V86.8947C53.5479 87.432 53.1132 87.8654 52.5759 87.8654Z" fill="#100F0D"/>
<path d="M31.6453 79.2947H40.0786V71.1147C37.2853 71.4467 34.4266 71.4454 31.6453 71.1147V79.2947ZM41.052 81.2387H30.6746C30.1373 81.2387 29.7013 80.804 29.7013 80.2667V70.0027C29.7013 69.72 29.8253 69.4507 30.0386 69.2667C30.2546 69.0814 30.5386 68.9987 30.8199 69.0414C34.1213 69.5427 37.5853 69.544 40.9053 69.0414C41.1853 69 41.4706 69.0814 41.6853 69.2667C41.9 69.4507 42.024 69.72 42.024 70.0027V80.2667C42.024 80.804 41.5866 81.2387 41.052 81.2387Z" fill="#100F0D"/>
<path d="M35.8613 2.112C17.3227 2.112 2.24134 17.2094 2.24134 35.7667C2.24134 54.3227 17.3227 69.42 35.8613 69.42C54.4013 69.42 69.4827 54.3227 69.4827 35.7667C69.4827 17.2094 54.4013 2.112 35.8613 2.112ZM35.8613 71.364C16.2507 71.364 0.297333 55.396 0.297333 35.7667C0.297333 16.1374 16.2507 0.166687 35.8613 0.166687C55.4733 0.166687 71.428 16.1374 71.428 35.7667C71.428 55.396 55.4733 71.364 35.8613 71.364Z" fill="#100F0D"/>
<path d="M35.8613 10.4774C21.932 10.4774 10.5973 21.8227 10.5973 35.7667C10.5973 49.7107 21.932 61.056 35.8613 61.056C49.7933 61.056 61.128 49.7107 61.128 35.7667C61.128 21.8227 49.7933 10.4774 35.8613 10.4774ZM35.8613 63.0013C20.86 63.0013 8.65329 50.784 8.65329 35.7667C8.65329 20.7494 20.86 8.53338 35.8613 8.53338C50.8653 8.53338 63.072 20.7494 63.072 35.7667C63.072 50.784 50.8653 63.0013 35.8613 63.0013Z" fill="#100F0D"/>
<path d="M35.8613 21.6427C32.8573 21.6427 30.4133 24.0894 30.4133 27.0974C30.4133 30.1067 32.8573 32.5533 35.8613 32.5533C38.8639 32.5533 41.3066 30.1067 41.3066 27.0974C41.3066 24.0894 38.8639 21.6427 35.8613 21.6427ZM35.8613 34.4987C31.7839 34.4987 28.4693 31.1774 28.4693 27.0974C28.4693 23.0174 31.7839 19.6974 35.8613 19.6974C39.9373 19.6974 43.252 23.0174 43.252 27.0974C43.252 31.1774 39.9373 34.4987 35.8613 34.4987Z" fill="#100F0D"/>
<path d="M23.4839 49.8907H48.2372C47.7639 42.0801 41.6013 38.512 35.8599 38.512C30.1199 38.512 23.9572 42.0801 23.4839 49.8907ZM49.2426 51.8361C49.2399 51.8361 49.2386 51.8361 49.2386 51.8361H22.4812C21.9466 51.8361 21.5106 51.3988 21.5106 50.8628C21.5106 46.4601 23.0706 42.7534 26.0186 40.1427C28.6226 37.8374 32.1173 36.568 35.8599 36.568C39.6013 36.568 43.0959 37.8374 45.7012 40.1427C48.6279 42.7334 50.1866 46.4041 50.2079 50.7628C50.2119 50.7961 50.2146 50.8294 50.2146 50.8628C50.2146 51.3988 49.7786 51.8361 49.2426 51.8361Z" fill="#100F0D"/>
<path d="M62.2426 118.771H9.47863C8.93996 118.771 8.50662 118.336 8.50662 117.797C8.50662 117.261 8.93996 116.827 9.47863 116.827H62.2426C62.7773 116.827 63.2146 117.261 63.2146 117.797C63.2146 118.336 62.7773 118.771 62.2426 118.771Z" fill="#100F0D"/>
</svg>
