<svg width="120" height="107" viewBox="0 0 120 107" fill="none" xmlns="http://www.w3.org/2000/svg">
<path d="M10.826 104.161H24.1579V79.0627H10.826V104.161ZM25.1307 106.105H9.85413C9.3156 106.105 8.8812 105.669 8.8812 105.133V78.0907C8.8812 77.556 9.3156 77.1187 9.85413 77.1187H25.1307C25.6667 77.1187 26.1021 77.556 26.1021 78.0907V105.133C26.1021 105.669 25.6667 106.105 25.1307 106.105Z" fill="#100F0D"/>
<path d="M39.2547 104.161H52.5912V40.648H39.2547V104.161ZM53.564 106.105H38.2817C37.7464 106.105 37.3099 105.669 37.3099 105.133V39.6747C37.3099 39.1374 37.7464 38.704 38.2817 38.704H53.564C54.1011 38.704 54.5369 39.1374 54.5369 39.6747V105.133C54.5369 105.669 54.1011 106.105 53.564 106.105Z" fill="#100F0D"/>
<path d="M67.6849 104.161H81.0208V48.48H67.6849V104.161ZM81.9943 106.105H66.7115C66.1745 106.105 65.7391 105.669 65.7391 105.133V47.508C65.7391 46.972 66.1745 46.536 66.7115 46.536H81.9943C82.5303 46.536 82.9656 46.972 82.9656 47.508V105.133C82.9656 105.669 82.5303 106.105 81.9943 106.105Z" fill="#100F0D"/>
<path d="M96.112 104.161H109.451V30.336H96.112V104.161ZM110.422 106.105H95.1406C94.6036 106.105 94.1693 105.669 94.1693 105.133V29.364C94.1693 28.8267 94.6036 28.392 95.1406 28.392H110.422C110.96 28.392 111.395 28.8267 111.395 29.364V105.133C111.395 105.669 110.96 106.105 110.422 106.105Z" fill="#100F0D"/>
<path d="M79.6568 29.4054C79.3505 29.4054 79.05 29.2627 78.8604 28.9947C78.5511 28.5547 78.6563 27.9481 79.0953 27.6387L106.732 8.15738C107.17 7.84672 107.777 7.95205 108.087 8.39072C108.397 8.83072 108.292 9.43607 107.853 9.74407L80.2161 29.2281C80.0448 29.3481 79.8495 29.4054 79.6568 29.4054Z" fill="#100F0D"/>
<path d="M71.5729 30.0707C71.4307 30.0707 71.2875 30.04 71.1516 29.9747L47.8776 18.7707C47.3937 18.5374 47.1901 17.956 47.4245 17.4734C47.6563 16.9894 48.238 16.7854 48.7219 17.0174L71.9943 28.2214C72.4781 28.4547 72.6823 29.0374 72.4484 29.52C72.2807 29.868 71.9339 30.0707 71.5729 30.0707Z" fill="#100F0D"/>
<path d="M12.8229 41.636C12.5364 41.636 12.2527 41.5093 12.0615 41.268C11.7281 40.8467 11.7973 40.2347 12.2177 39.9L39.7751 18.016C40.1959 17.6814 40.8073 17.752 41.1401 18.172C41.4745 18.5934 41.4036 19.2054 40.9839 19.54L13.4287 41.424C13.2484 41.5653 13.0344 41.636 12.8229 41.636Z" fill="#100F0D"/>
<path d="M9.14173 39.8587C7.08279 39.8587 5.40879 41.536 5.40879 43.596C5.40879 45.6534 7.08279 47.3254 9.14173 47.3254C11.1979 47.3254 12.8693 45.6534 12.8693 43.596C12.8693 41.536 11.1979 39.8587 9.14173 39.8587ZM9.14173 49.2707C6.01199 49.2707 3.46613 46.7254 3.46613 43.596C3.46613 40.464 6.01199 37.9147 9.14173 37.9147C12.2693 37.9147 14.8151 40.464 14.8151 43.596C14.8151 46.7254 12.2693 49.2707 9.14173 49.2707Z" fill="#100F0D"/>
<path d="M44.0651 12.1147C42.0088 12.1147 40.3364 13.7867 40.3364 15.844C40.3364 17.904 42.0088 19.5814 44.0651 19.5814C46.1197 19.5814 47.7921 17.904 47.7921 15.844C47.7921 13.7867 46.1197 12.1147 44.0651 12.1147ZM44.0651 21.5254C40.9375 21.5254 38.3917 18.976 38.3917 15.844C38.3917 12.716 40.9375 10.1694 44.0651 10.1694C47.1927 10.1694 49.7369 12.716 49.7369 15.844C49.7369 18.976 47.1927 21.5254 44.0651 21.5254Z" fill="#100F0D"/>
<path d="M75.814 27.4121C73.7579 27.4121 72.0855 29.0841 72.0855 31.1387C72.0855 33.2001 73.7579 34.8774 75.814 34.8774C77.8688 34.8774 79.5412 33.2001 79.5412 31.1387C79.5412 29.0841 77.8688 27.4121 75.814 27.4121ZM75.814 36.8214C72.686 36.8214 70.1407 34.2734 70.1407 31.1387C70.1407 28.0107 72.686 25.4667 75.814 25.4667C78.9417 25.4667 81.486 28.0107 81.486 31.1387C81.486 34.2734 78.9417 36.8214 75.814 36.8214Z" fill="#100F0D"/>
<path d="M111.134 2.50673C109.076 2.50673 107.401 4.18274 107.401 6.24407C107.401 8.30407 109.076 9.98141 111.134 9.98141C113.19 9.98141 114.863 8.30407 114.863 6.24407C114.863 4.18274 113.19 2.50673 111.134 2.50673ZM111.134 11.9254C108.003 11.9254 105.458 9.3774 105.458 6.24407C105.458 3.11207 108.003 0.562721 111.134 0.562721C114.262 0.562721 116.807 3.11207 116.807 6.24407C116.807 9.3774 114.262 11.9254 111.134 11.9254Z" fill="#100F0D"/>
<path d="M118.42 106.105H1.8568C1.31973 106.105 0.885468 105.669 0.885468 105.133C0.885468 104.597 1.31973 104.161 1.8568 104.161H118.42C118.956 104.161 119.392 104.597 119.392 105.133C119.392 105.669 118.956 106.105 118.42 106.105Z" fill="#100F0D"/>
</svg>
