<svg width="120" height="87" viewBox="0 0 120 87" fill="none" xmlns="http://www.w3.org/2000/svg">
<path d="M30.8506 36.6614L46.2306 45.5534L60.8159 20.2734L45.4332 11.3801L30.8506 36.6614ZM46.5866 47.8547C46.4172 47.8547 46.2506 47.8107 46.0999 47.7241L29.0333 37.8587C28.5706 37.5907 28.4119 36.996 28.6799 36.5307L44.2372 9.56541C44.3652 9.34274 44.5772 9.18006 44.8279 9.11339C45.0772 9.04673 45.3413 9.08136 45.5653 9.20936L62.6306 19.0747C63.0932 19.3441 63.2519 19.9387 62.9866 20.4027L47.4293 47.368C47.2999 47.592 47.0866 47.7547 46.8386 47.8227C46.7546 47.844 46.6706 47.8547 46.5866 47.8547Z" fill="#100F0D"/>
<path d="M22.6386 40.2227L47.2546 54.4494L49.8799 49.9067L25.2573 35.6774L22.6386 40.2227ZM47.6119 56.7507C47.4412 56.7507 47.2733 56.708 47.1253 56.62L20.8252 41.42C20.3612 41.152 20.1999 40.5587 20.4693 40.0934L24.0586 33.864C24.1892 33.6414 24.4013 33.4774 24.6493 33.4107C24.8986 33.3427 25.1653 33.3787 25.3879 33.5067L51.6933 48.708C52.1586 48.9774 52.3159 49.572 52.0479 50.036L48.4532 56.2654C48.3239 56.4894 48.1133 56.652 47.8639 56.7187C47.7799 56.7414 47.6946 56.7507 47.6119 56.7507Z" fill="#100F0D"/>
<path d="M41.7866 7.02805L66.408 21.256L69.0267 16.712L44.4093 2.48404L41.7866 7.02805ZM66.7627 23.5587C66.5947 23.5587 66.4266 23.5134 66.276 23.4267L39.972 8.22538C39.508 7.95738 39.348 7.36272 39.616 6.89739L43.2133 0.669394C43.34 0.445394 43.5533 0.282741 43.804 0.216074C44.052 0.149407 44.316 0.184071 44.54 0.313405L70.8413 15.5147C71.3053 15.784 71.464 16.3774 71.196 16.8427L67.6053 23.0707C67.476 23.2947 67.264 23.4587 67.016 23.5254C66.932 23.5467 66.848 23.5587 66.7627 23.5587Z" fill="#100F0D"/>
<path d="M51.8786 39.6614L56.4146 42.28L63.0746 30.736L58.5346 28.1107L51.8786 39.6614ZM56.7706 44.5787C56.6012 44.5787 56.4333 44.5347 56.2839 44.448L50.0666 40.8614C49.6013 40.5907 49.4426 39.9974 49.7079 39.5321L57.3372 26.2961C57.4666 26.0734 57.6786 25.9093 57.9266 25.8427C58.1773 25.7773 58.4426 25.8107 58.6666 25.94L64.888 29.5387C65.3533 29.808 65.5119 30.4014 65.2426 30.8667L57.6119 44.092C57.4839 44.3174 57.2706 44.4787 57.0213 44.5453C56.94 44.5693 56.8546 44.5787 56.7706 44.5787Z" fill="#100F0D"/>
<path d="M59.5306 40.768L105.219 72.0307C106.333 72.792 107.655 73.1947 109.04 73.1947C111.863 73.1947 114.623 71.572 116.068 69.0614C117.203 67.0987 117.477 64.6294 116.805 62.4587C116.207 60.5174 114.929 58.9934 113.207 58.1654L63.3267 34.192L59.5306 40.768ZM109.041 75.14H109.04C107.26 75.14 105.56 74.6187 104.12 73.6347L57.692 41.864C57.272 41.5774 57.144 41.0174 57.3973 40.5774L62.0933 32.4387C62.3467 31.9987 62.8986 31.8294 63.3586 32.0494L114.049 56.412C116.264 57.4774 117.904 59.4214 118.665 61.884C119.505 64.604 119.172 67.5747 117.753 70.0334C115.967 73.1347 112.547 75.14 109.041 75.14Z" fill="#100F0D"/>
<path d="M90.5653 61.9987L98.4053 67.364L105.769 54.5867L97.216 50.4747L90.5653 61.9987ZM98.7226 69.7307C98.5266 69.7307 98.336 69.672 98.1733 69.5614L88.724 63.0961C88.3053 62.8081 88.1786 62.2481 88.4306 61.8081L95.9827 48.7241C96.236 48.2827 96.788 48.1121 97.2453 48.3321L107.556 53.2881C107.801 53.4054 107.985 53.62 108.065 53.8787C108.144 54.1374 108.112 54.4174 107.977 54.6507L99.564 69.2441C99.428 69.4787 99.2013 69.6467 98.9373 69.7081C98.8653 69.7241 98.7933 69.7307 98.7226 69.7307Z" fill="#100F0D"/>
<path d="M10.256 72.5147H55.7226V62.2974H10.256V72.5147ZM56.6946 74.4601H9.28397C8.74797 74.4601 8.3093 74.024 8.3093 73.4867V61.3254C8.3093 60.788 8.74797 60.3521 9.28397 60.3521H56.6946C57.232 60.3521 57.6666 60.788 57.6666 61.3254V73.4867C57.6666 74.024 57.232 74.4601 56.6946 74.4601Z" fill="#100F0D"/>
<path d="M2.55323 84.6787H63.4239V74.4601H2.55323V84.6787ZM64.3972 86.6227H1.57993C1.04393 86.6227 0.609222 86.188 0.609222 85.6507V73.4867C0.609222 72.9507 1.04393 72.5147 1.57993 72.5147H64.3972C64.9319 72.5147 65.3679 72.9507 65.3679 73.4867V85.6507C65.3679 86.188 64.9319 86.6227 64.3972 86.6227Z" fill="#100F0D"/>
</svg>
