<svg width="120" height="97" viewBox="0 0 120 97" fill="none" xmlns="http://www.w3.org/2000/svg">
<path d="M36.0427 94.7548H84.2328V34.2361H36.0427V94.7548ZM85.2057 96.7001H35.0703C34.5344 96.7001 34.0984 96.2641 34.0984 95.7281V33.2641C34.0984 32.7267 34.5344 32.2908 35.0703 32.2908H85.2057C85.7427 32.2908 86.1792 32.7267 86.1792 33.2641V95.7281C86.1792 96.2641 85.7427 96.7001 85.2057 96.7001Z" fill="#100F0D"/>
<path d="M44.2937 32.2908H75.9817V20.6867H44.2937V32.2908ZM76.9536 34.2361H43.3224C42.7855 34.2361 42.3511 33.8014 42.3511 33.2641V19.7161C42.3511 19.1774 42.7855 18.7441 43.3224 18.7441H76.9536C77.4912 18.7441 77.9251 19.1774 77.9251 19.7161V33.2641C77.9251 33.8014 77.4912 34.2361 76.9536 34.2361Z" fill="#100F0D"/>
<path d="M60.1407 20.6867C59.6036 20.6867 59.1683 20.2534 59.1683 19.7161V1.0787C59.1683 0.541367 59.6036 0.105393 60.1407 0.105393C60.6765 0.105393 61.1125 0.541367 61.1125 1.0787V19.7161C61.1125 20.2534 60.6765 20.6867 60.1407 20.6867Z" fill="#100F0D"/>
<path d="M49.3703 94.7548H70.9068V70.4387H49.3703V94.7548ZM71.8781 96.7001H48.3979C47.8599 96.7001 47.4245 96.2641 47.4245 95.7281V69.4654C47.4245 68.9281 47.8599 68.4947 48.3979 68.4947H71.8781C72.4151 68.4947 72.8516 68.9281 72.8516 69.4654V95.7281C72.8516 96.2641 72.4151 96.7001 71.8781 96.7001Z" fill="#100F0D"/>
<path d="M72.8312 43.7587H47.4448C46.9079 43.7587 46.4713 43.3241 46.4713 42.7867C46.4713 42.2494 46.9079 41.8147 47.4448 41.8147H72.8312C73.3688 41.8147 73.8041 42.2494 73.8041 42.7867C73.8041 43.3241 73.3688 43.7587 72.8312 43.7587Z" fill="#100F0D"/>
<path d="M72.8312 52.4468H47.4448C46.9079 52.4468 46.4713 52.0121 46.4713 51.4748C46.4713 50.9374 46.9079 50.5028 47.4448 50.5028H72.8312C73.3688 50.5028 73.8041 50.9374 73.8041 51.4748C73.8041 52.0121 73.3688 52.4468 72.8312 52.4468Z" fill="#100F0D"/>
<path d="M72.8312 61.1241H47.4448C46.9079 61.1241 46.4713 60.6894 46.4713 60.1521C46.4713 59.6147 46.9079 59.1787 47.4448 59.1787H72.8312C73.3688 59.1787 73.8041 59.6147 73.8041 60.1521C73.8041 60.6894 73.3688 61.1241 72.8312 61.1241Z" fill="#100F0D"/>
<path d="M86.1792 94.7548H117.447V57.7361H86.1792V94.7548ZM118.42 96.7001H85.2057C84.6697 96.7001 84.2328 96.2641 84.2328 95.7281V56.7628C84.2328 56.2254 84.6697 55.7908 85.2057 55.7908H118.42C118.956 55.7908 119.392 56.2254 119.392 56.7628V95.7281C119.392 96.2641 118.956 96.7001 118.42 96.7001Z" fill="#100F0D"/>
<path d="M92.4864 70.3361H96.9869V64.9214H92.4864V70.3361ZM97.9593 72.2801H91.5131C90.9781 72.2801 90.5406 71.8454 90.5406 71.3081V63.9507C90.5406 63.4134 90.9781 62.9774 91.5131 62.9774H97.9593C98.4953 62.9774 98.9317 63.4134 98.9317 63.9507V71.3081C98.9317 71.8454 98.4953 72.2801 97.9593 72.2801Z" fill="#100F0D"/>
<path d="M106.638 70.3361H111.14V64.9214H106.638V70.3361ZM112.111 72.2801H105.666C105.129 72.2801 104.693 71.8454 104.693 71.3081V63.9507C104.693 63.4134 105.129 62.9774 105.666 62.9774H112.111C112.648 62.9774 113.083 63.4134 113.083 63.9507V71.3081C113.083 71.8454 112.648 72.2801 112.111 72.2801Z" fill="#100F0D"/>
<path d="M92.4864 85.6881H96.9869V80.2655H92.4864V85.6881ZM97.9593 87.6321H91.5131C90.9781 87.6321 90.5406 87.1974 90.5406 86.6614V79.2935C90.5406 78.7561 90.9781 78.3201 91.5131 78.3201H97.9593C98.4953 78.3201 98.9317 78.7561 98.9317 79.2935V86.6614C98.9317 87.1974 98.4953 87.6321 97.9593 87.6321Z" fill="#100F0D"/>
<path d="M106.638 85.6881H111.14V80.2655H106.638V85.6881ZM112.111 87.6321H105.666C105.129 87.6321 104.693 87.1974 104.693 86.6614V79.2935C104.693 78.7561 105.129 78.3201 105.666 78.3201H112.111C112.648 78.3201 113.083 78.7561 113.083 79.2935V86.6614C113.083 87.1974 112.648 87.6321 112.111 87.6321Z" fill="#100F0D"/>
<path d="M2.82867 94.7548H34.0984V57.7361H2.82867V94.7548ZM35.0703 96.7001H1.8568C1.31973 96.7001 0.885468 96.2641 0.885468 95.7281V56.7628C0.885468 56.2254 1.31973 55.7908 1.8568 55.7908H35.0703C35.6073 55.7908 36.0427 56.2254 36.0427 56.7628V95.7281C36.0427 96.2641 35.6073 96.7001 35.0703 96.7001Z" fill="#100F0D"/>
<path d="M9.13599 70.3361H13.638V64.9214H9.13599V70.3361ZM14.6093 72.2801H8.16452C7.62759 72.2801 7.19266 71.8454 7.19266 71.3081V63.9507C7.19266 63.4134 7.62759 62.9774 8.16452 62.9774H14.6093C15.1473 62.9774 15.5828 63.4134 15.5828 63.9507V71.3081C15.5828 71.8454 15.1473 72.2801 14.6093 72.2801Z" fill="#100F0D"/>
<path d="M23.2891 70.3361H27.7896V64.9214H23.2891V70.3361ZM28.7625 72.2801H22.3156C21.7803 72.2801 21.3443 71.8454 21.3443 71.3081V63.9507C21.3443 63.4134 21.7803 62.9774 22.3156 62.9774H28.7625C29.2995 62.9774 29.736 63.4134 29.736 63.9507V71.3081C29.736 71.8454 29.2995 72.2801 28.7625 72.2801Z" fill="#100F0D"/>
<path d="M9.13599 85.6881H13.638V80.2655H9.13599V85.6881ZM14.6093 87.6321H8.16452C7.62759 87.6321 7.19266 87.1974 7.19266 86.6614V79.2935C7.19266 78.7561 7.62759 78.3201 8.16452 78.3201H14.6093C15.1473 78.3201 15.5828 78.7561 15.5828 79.2935V86.6614C15.5828 87.1974 15.1473 87.6321 14.6093 87.6321Z" fill="#100F0D"/>
<path d="M23.2891 85.6881H27.7896V80.2655H23.2891V85.6881ZM28.7625 87.6321H22.3156C21.7803 87.6321 21.3443 87.1974 21.3443 86.6614V79.2935C21.3443 78.7561 21.7803 78.3201 22.3156 78.3201H28.7625C29.2995 78.3201 29.736 78.7561 29.736 79.2935V86.6614C29.736 87.1974 29.2995 87.6321 28.7625 87.6321Z" fill="#100F0D"/>
</svg>
