<svg width="120" height="76" viewBox="0 0 120 76" fill="none" xmlns="http://www.w3.org/2000/svg">
<path d="M5.59594 2.34791C3.95727 2.34791 2.62257 3.68284 2.62257 5.3255V46.5136C2.62257 48.1558 3.95727 49.4907 5.59594 49.4907H91.5759C93.2146 49.4907 94.5493 48.1558 94.5493 46.5136V5.3255C94.5493 3.68284 93.2146 2.34791 91.5759 2.34791H5.59594ZM91.5759 51.436H5.59594C2.88394 51.436 0.678558 49.2266 0.678558 46.5136V5.3255C0.678558 2.61044 2.88394 0.402709 5.59594 0.402709H91.5759C94.2879 0.402709 96.4933 2.61044 96.4933 5.3255V46.5136C96.4933 49.2266 94.2879 51.436 91.5759 51.436Z" fill="#100F0D"/>
<path d="M21.4733 42.7214H75.6999C76.1733 36.2678 81.336 31.0984 87.7826 30.623V21.2162C81.336 20.7402 76.1733 15.5708 75.6999 9.11723H21.4733C20.9986 15.5708 15.8359 20.7402 9.38927 21.2162V30.623C15.8359 31.0984 20.9986 36.2678 21.4733 42.7214ZM76.6359 44.6667H20.5359C19.9999 44.6667 19.5639 44.2292 19.5639 43.6932C19.5639 37.5386 14.5653 32.5318 8.41726 32.5318C7.88126 32.5318 7.44662 32.0959 7.44662 31.5588V20.2803C7.44662 19.7427 7.88126 19.3068 8.41726 19.3068C14.5653 19.3068 19.5639 14.3 19.5639 8.14376C19.5639 7.60789 19.9999 7.17189 20.5359 7.17189H76.6359C77.1719 7.17189 77.6079 7.60789 77.6079 8.14376C77.6079 14.3 82.6079 19.3068 88.7533 19.3068C89.2906 19.3068 89.7253 19.7427 89.7253 20.2803V31.5588C89.7253 32.0959 89.2906 32.5318 88.7533 32.5318C82.6079 32.5318 77.6079 37.5386 77.6079 43.6932C77.6079 44.2292 77.1719 44.6667 76.6359 44.6667Z" fill="#100F0D"/>
<path d="M48.5853 16.5891C45.6773 16.5891 43.2186 20.8626 43.2186 25.9188C43.2186 30.976 45.6773 35.2495 48.5853 35.2495C51.496 35.2495 53.9559 30.976 53.9559 25.9188C53.9559 20.8626 51.496 16.5891 48.5853 16.5891ZM48.5853 37.1922C44.4853 37.1922 41.2719 32.2402 41.2719 25.9188C41.2719 19.5974 44.4853 14.6438 48.5853 14.6438C52.688 14.6438 55.8999 19.5974 55.8999 25.9188C55.8999 32.2402 52.688 37.1922 48.5853 37.1922Z" fill="#100F0D"/>
<path d="M12.9106 51.436V57.8027C12.9106 59.4454 14.244 60.7803 15.8826 60.7803H101.861C103.503 60.7803 104.836 59.4454 104.836 57.8027V16.6052C104.836 14.9626 103.503 13.6266 101.861 13.6266H96.4933V46.5136C96.4933 49.2266 94.2879 51.436 91.5759 51.436H12.9106ZM101.861 62.7255H15.8826C13.172 62.7255 10.9653 60.5172 10.9653 57.8027V50.464C10.9653 49.9266 11.3999 49.4907 11.9386 49.4907H91.5759C93.2146 49.4907 94.5493 48.1558 94.5493 46.5136V12.6547C94.5493 12.1172 94.9839 11.6812 95.5226 11.6812H101.861C104.576 11.6812 106.781 13.8907 106.781 16.6052V57.8027C106.781 60.5172 104.576 62.7255 101.861 62.7255Z" fill="#100F0D"/>
<path d="M25.3172 62.7255V71.0667C25.3172 72.7094 26.6506 74.0454 28.2919 74.0454H114.265C115.905 74.0454 117.24 72.7094 117.24 71.0667V29.8694C117.24 28.2266 115.905 26.8922 114.265 26.8922H106.781V57.8027C106.781 60.5172 104.576 62.7255 101.861 62.7255H25.3172ZM114.265 75.9891H28.2919C25.5786 75.9891 23.3719 73.7803 23.3719 71.0667V61.7522C23.3719 61.2162 23.8079 60.7803 24.3452 60.7803H101.861C103.503 60.7803 104.836 59.4454 104.836 57.8027V25.9188C104.836 25.3828 105.272 24.947 105.809 24.947H114.265C116.977 24.947 119.185 27.1558 119.185 29.8694V71.0667C119.185 73.7803 116.977 75.9891 114.265 75.9891Z" fill="#100F0D"/>
</svg>
