<svg width="100" height="120" viewBox="0 0 100 120" fill="none" xmlns="http://www.w3.org/2000/svg">
<path d="M9.33326 2.83175C5.52126 2.83175 2.41861 5.93855 2.41861 9.75468V103.81C2.41861 107.629 5.52126 110.737 9.33326 110.737H90.3906C94.2026 110.737 97.3053 107.629 97.3053 103.81V9.75468C97.3053 5.93855 94.2026 2.83175 90.3906 2.83175H9.33326ZM90.3906 112.681H9.33326C4.44926 112.681 0.473236 108.703 0.473236 103.81V9.75468C0.473236 4.86508 4.44926 0.888015 9.33326 0.888015H90.3906C95.276 0.888015 99.2506 4.86508 99.2506 9.75468V103.81C99.2506 108.703 95.276 112.681 90.3906 112.681Z" fill="#100F0D"/>
<path d="M11.2026 42.5318H88.5186V15.7599H11.2026V42.5318ZM89.4893 44.4771H10.2306C9.6946 44.4771 9.25729 44.0412 9.25729 43.5027V14.7864C9.25729 14.2495 9.6946 13.8146 10.2306 13.8146H89.4893C90.0279 13.8146 90.4613 14.2495 90.4613 14.7864V43.5027C90.4613 44.0412 90.0279 44.4771 89.4893 44.4771Z" fill="#100F0D"/>
<path d="M14.252 61.1984H27.7279V53.8094H14.252V61.1984ZM28.6986 63.1427H13.28C12.744 63.1427 12.308 62.7079 12.308 62.1708V52.8375C12.308 52.3 12.744 51.864 13.28 51.864H28.6986C29.2373 51.864 29.6706 52.3 29.6706 52.8375V62.1708C29.6706 62.7079 29.2373 63.1427 28.6986 63.1427Z" fill="#100F0D"/>
<path d="M43.1226 61.1984H56.6026V53.8094H43.1226V61.1984ZM57.5746 63.1427H42.1493C41.6146 63.1427 41.1786 62.7079 41.1786 62.1708V52.8375C41.1786 52.3 41.6146 51.864 42.1493 51.864H57.5746C58.1119 51.864 58.5466 52.3 58.5466 52.8375V62.1708C58.5466 62.7079 58.1119 63.1427 57.5746 63.1427Z" fill="#100F0D"/>
<path d="M71.9933 61.1984H85.472V53.8094H71.9933V61.1984ZM86.444 63.1427H71.0213C70.4827 63.1427 70.0467 62.7079 70.0467 62.1708V52.8375C70.0467 52.3 70.4827 51.864 71.0213 51.864H86.444C86.9813 51.864 87.4173 52.3 87.4173 52.8375V62.1708C87.4173 62.7079 86.9813 63.1427 86.444 63.1427Z" fill="#100F0D"/>
<path d="M14.252 79.5093H27.7279V72.1197H14.252V79.5093ZM28.6986 81.4547H13.28C12.744 81.4547 12.308 81.0188 12.308 80.4812V71.1479C12.308 70.612 12.744 70.176 13.28 70.176H28.6986C29.2373 70.176 29.6706 70.612 29.6706 71.1479V80.4812C29.6706 81.0188 29.2373 81.4547 28.6986 81.4547Z" fill="#100F0D"/>
<path d="M43.1226 79.5093H56.6026V72.1197H43.1226V79.5093ZM57.5746 81.4547H42.1493C41.6146 81.4547 41.1786 81.0188 41.1786 80.4812V71.1479C41.1786 70.612 41.6146 70.176 42.1493 70.176H57.5746C58.1119 70.176 58.5466 70.612 58.5466 71.1479V80.4812C58.5466 81.0188 58.1119 81.4547 57.5746 81.4547Z" fill="#100F0D"/>
<path d="M71.9933 97.8162H85.472V72.1198H71.9933V97.8162ZM86.444 99.7599H71.0213C70.4827 99.7599 70.0467 99.3255 70.0467 98.7864V71.1479C70.0467 70.612 70.4827 70.176 71.0213 70.176H86.444C86.9813 70.176 87.4173 70.612 87.4173 71.1479V98.7864C87.4173 99.3255 86.9813 99.7599 86.444 99.7599Z" fill="#100F0D"/>
<path d="M14.252 97.8162H27.7279V90.4266H14.252V97.8162ZM28.6986 99.7599H13.28C12.744 99.7599 12.308 99.3255 12.308 98.7864V89.4547C12.308 88.9172 12.744 88.4812 13.28 88.4812H28.6986C29.2373 88.4812 29.6706 88.9172 29.6706 89.4547V98.7864C29.6706 99.3255 29.2373 99.7599 28.6986 99.7599Z" fill="#100F0D"/>
<path d="M43.1226 97.8162H56.6026V90.4266H43.1226V97.8162ZM57.5746 99.7599H42.1493C41.6146 99.7599 41.1786 99.3255 41.1786 98.7864V89.4547C41.1786 88.9172 41.6146 88.4812 42.1493 88.4812H57.5746C58.1119 88.4812 58.5466 88.9172 58.5466 89.4547V98.7864C58.5466 99.3255 58.1119 99.7599 57.5746 99.7599Z" fill="#100F0D"/>
<path d="M6.00922 112.033C7.06522 115.332 9.31722 117.56 11.8092 117.56H87.9159C90.4039 117.56 92.6533 115.332 93.7133 112.034C92.6666 112.461 91.5439 112.681 90.3906 112.681H9.33325C8.17858 112.681 7.05589 112.461 6.00922 112.033ZM87.9159 119.503H11.8092C7.85189 119.503 4.40125 115.608 3.60525 110.237C3.54658 109.847 3.73189 109.46 4.07322 109.259C4.41455 109.059 4.84257 109.083 5.1559 109.322C6.3719 110.248 7.81725 110.737 9.33325 110.737H90.3906C91.9066 110.737 93.3519 110.248 94.5679 109.322C94.8825 109.083 95.3119 109.059 95.6519 109.259C95.9919 109.46 96.1786 109.848 96.1199 110.239C95.3172 115.609 91.8679 119.503 87.9159 119.503Z" fill="#100F0D"/>
<path d="M22.78 20.4214C21.3907 20.4214 19.4507 23.7402 19.4507 29.1438C19.4507 34.547 21.3907 37.8651 22.78 37.8651C24.3547 37.8651 26.1146 34.135 26.1146 29.1438C26.1146 24.1506 24.3547 20.4214 22.78 20.4214ZM22.78 39.8094C19.772 39.8094 17.5053 35.224 17.5053 29.1438C17.5053 23.0615 19.772 18.476 22.78 18.476C25.7907 18.476 28.0574 23.0615 28.0574 29.1438C28.0574 35.224 25.7907 39.8094 22.78 39.8094Z" fill="#100F0D"/>
<path d="M39.4613 20.4214C37.8906 20.4214 36.1333 24.1506 36.1333 29.1438C36.1333 34.135 37.8906 37.8651 39.4613 37.8651C41.0319 37.8651 42.7906 34.135 42.7906 29.1438C42.7906 24.1506 41.0319 20.4214 39.4613 20.4214ZM39.4613 39.8094C36.4533 39.8094 34.188 35.224 34.188 29.1438C34.188 23.0615 36.4533 18.476 39.4613 18.476C42.4693 18.476 44.7359 23.0615 44.7359 29.1438C44.7359 35.224 42.4693 39.8094 39.4613 39.8094Z" fill="#100F0D"/>
<path d="M56.1387 20.4214C54.5653 20.4214 52.8066 24.1506 52.8066 29.1438C52.8066 34.135 54.5653 37.8651 56.1387 37.8651C57.708 37.8651 59.4667 34.135 59.4667 29.1438C59.4667 24.1506 57.708 20.4214 56.1387 20.4214ZM56.1387 39.8094C53.1307 39.8094 50.864 35.224 50.864 29.1438C50.864 23.0615 53.1307 18.476 56.1387 18.476C59.1427 18.476 61.412 23.0615 61.412 29.1438C61.412 35.224 59.1427 39.8094 56.1387 39.8094Z" fill="#100F0D"/>
</svg>
