<svg width="120" height="104" viewBox="0 0 120 104" fill="none" xmlns="http://www.w3.org/2000/svg">
<path d="M17.6707 90.1839H87.116V69.4683L80.588 74.2386C80.2773 74.4667 79.8613 74.4891 79.528 74.2959C79.1947 74.1042 79.0067 73.7318 79.048 73.3495L80.096 63.6375L80.7893 57.1683C80.804 57.0334 80.8454 56.9016 80.9147 56.7839L87.116 46.0344V20.411L69.5253 2.80272H17.6707V90.1839ZM88.088 92.1292H16.6987C16.16 92.1292 15.7253 91.6932 15.7253 91.1558V1.83178C15.7253 1.29484 16.16 0.858845 16.6987 0.858845H69.9267C70.1853 0.858845 70.432 0.961515 70.616 1.14378L88.7747 19.3225C88.9574 19.5042 89.06 19.7506 89.06 20.0079V46.2959C89.06 46.4651 89.016 46.6334 88.9293 46.7803L82.7 57.5787L81.2173 71.3708L87.516 66.7694C87.8094 66.5522 88.2013 66.5198 88.528 66.6864C88.8547 66.8506 89.06 67.1864 89.06 67.5547V91.1558C89.06 91.6932 88.624 92.1292 88.088 92.1292Z" fill="#100F0D"/>
<path d="M73.764 33.0495H27.104C26.5667 33.0495 26.1306 32.6136 26.1306 32.076C26.1306 31.5412 26.5667 31.1052 27.104 31.1052H73.764C74.3013 31.1052 74.7373 31.5412 74.7373 32.076C74.7373 32.6136 74.3013 33.0495 73.764 33.0495Z" fill="#100F0D"/>
<path d="M73.764 47.4667H27.104C26.5667 47.4667 26.1306 47.0307 26.1306 46.4948C26.1306 45.9563 26.5667 45.523 27.104 45.523H73.764C74.3013 45.523 74.7373 45.9563 74.7373 46.4948C74.7373 47.0307 74.3013 47.4667 73.764 47.4667Z" fill="#100F0D"/>
<path d="M73.764 61.8803H27.104C26.5667 61.8803 26.1306 61.4453 26.1306 60.9068C26.1306 60.3708 26.5667 59.9344 27.104 59.9344H73.764C74.3013 59.9344 74.7373 60.3708 74.7373 60.9068C74.7373 61.4453 74.3013 61.8803 73.764 61.8803Z" fill="#100F0D"/>
<path d="M73.764 76.3016H27.104C26.5667 76.3016 26.1306 75.8667 26.1306 75.3307C26.1306 74.7922 26.5667 74.3574 27.104 74.3574H73.764C74.3013 74.3574 74.7373 74.7922 74.7373 75.3307C74.7373 75.8667 74.3013 76.3016 73.764 76.3016Z" fill="#100F0D"/>
<path d="M70.9013 19.3495H86.056L70.9013 4.18028V19.3495ZM88.088 21.2932H69.9267C69.3907 21.2932 68.9547 20.8599 68.9547 20.3224V1.83175C68.9547 1.43855 69.192 1.08282 69.556 0.933351C69.9187 0.782818 70.3373 0.865085 70.616 1.14375L88.7747 19.3224C88.9573 19.5042 89.06 19.7506 89.06 20.0079V20.3224C89.06 20.8599 88.624 21.2932 88.088 21.2932Z" fill="#100F0D"/>
<path d="M2.69196 101.592H72.1426V92.123H16.6986C16.16 92.123 15.7253 91.6896 15.7253 91.1522V14.2172H2.69196V101.592ZM73.1146 103.538H1.72129C1.18396 103.538 0.747986 103.103 0.747986 102.564V13.2427C0.747986 12.7068 1.18396 12.2719 1.72129 12.2719H16.6986C17.2346 12.2719 17.6706 12.7068 17.6706 13.2427V90.1803H73.1146C73.652 90.1803 74.0853 90.6146 74.0853 91.1522V102.564C74.0853 103.103 73.652 103.538 73.1146 103.538Z" fill="#100F0D"/>
<path d="M53.5453 21.8694H27.104C26.5667 21.8694 26.1306 21.4334 26.1306 20.8959C26.1306 20.3599 26.5667 19.924 27.104 19.924H53.5453C54.0827 19.924 54.5173 20.3599 54.5173 20.8959C54.5173 21.4334 54.0827 21.8694 53.5453 21.8694Z" fill="#100F0D"/>
<path d="M53.5453 10.6896H27.104C26.5667 10.6896 26.1306 10.2531 26.1306 9.71884C26.1306 9.1803 26.5667 8.7443 27.104 8.7443H53.5453C54.0827 8.7443 54.5173 9.1803 54.5173 9.71884C54.5173 10.2531 54.0827 10.6896 53.5453 10.6896Z" fill="#100F0D"/>
<path d="M82.7 57.5787L81.216 71.3708L92.4093 63.1907L116.953 20.6438L107.244 15.0292L82.7 57.5787ZM80.0147 74.4266C79.848 74.4266 79.68 74.3839 79.528 74.2959C79.1947 74.1042 79.0067 73.7318 79.048 73.3495L80.7893 57.1667C80.804 57.0334 80.8453 56.9016 80.9147 56.7839L106.047 13.2136C106.175 12.9907 106.388 12.8282 106.639 12.7599C106.887 12.6948 107.151 12.7292 107.376 12.8588L118.767 19.4479C119.232 19.7162 119.392 20.3104 119.123 20.7746L93.9907 64.3402C93.9213 64.4574 93.8306 64.5599 93.7213 64.6402L80.588 74.2386C80.4173 74.364 80.2173 74.4266 80.0147 74.4266Z" fill="#100F0D"/>
<path d="M104.772 19.3146L114.481 24.9224L116.953 20.6438L107.244 15.0292L104.772 19.3146ZM114.836 27.224C114.668 27.224 114.5 27.1803 114.352 27.0932L102.96 20.5136C102.493 20.2443 102.333 19.6506 102.603 19.1855L106.047 13.2146C106.175 12.9907 106.388 12.8282 106.639 12.7599C106.887 12.6948 107.151 12.7292 107.376 12.8588L118.767 19.4479C119.232 19.7162 119.392 20.3104 119.123 20.776L115.679 26.7375C115.549 26.9615 115.337 27.124 115.088 27.1907C115.005 27.2136 114.921 27.224 114.836 27.224Z" fill="#100F0D"/>
<path d="M82.5627 58.8599L81.216 71.3708L91.3693 63.9495L82.5627 58.8599ZM80.0147 74.4266C79.848 74.4266 79.68 74.3839 79.528 74.2959C79.1947 74.1042 79.0067 73.7318 79.048 73.3495L80.7893 57.1667C80.824 56.8402 81.0227 56.5522 81.3147 56.4042C81.6067 56.2531 81.9573 56.264 82.2413 56.4292L93.6347 63.012C93.9173 63.1771 94.1 63.4746 94.1186 63.8042C94.1373 64.1307 93.9866 64.447 93.7213 64.6402L80.588 74.2386C80.4173 74.364 80.2173 74.4266 80.0147 74.4266Z" fill="#100F0D"/>
<path d="M81.8853 65.1896L81.2173 71.3708L86.2347 67.7068C85.548 67.2375 84.836 66.7932 84.1067 66.3735C83.3693 65.9454 82.6266 65.5495 81.8853 65.1896ZM80.0147 74.4266C79.848 74.4266 79.68 74.3828 79.528 74.2959C79.1947 74.1042 79.0067 73.7318 79.048 73.3495L80.096 63.6375C80.1307 63.3307 80.3067 63.0574 80.5733 62.9016C80.8413 62.7454 81.1666 62.7255 81.4506 62.8495C82.6586 63.3719 83.8787 63.9922 85.0813 64.6907C86.26 65.3708 87.4053 66.1188 88.476 66.9146C88.7253 67.1 88.8693 67.3907 88.8693 67.7C88.868 68.0079 88.7213 68.2974 88.472 68.4812L80.5866 74.2386C80.4173 74.364 80.2173 74.4266 80.0147 74.4266Z" fill="#100F0D"/>
</svg>
