<svg width="120" height="103" viewBox="0 0 120 103" fill="none" xmlns="http://www.w3.org/2000/svg">
<path d="M9.73199 33.5254H114.624L62.18 2.85744L34.6533 18.9534L9.73199 33.5254ZM118.217 35.4694C118.216 35.4694 118.213 35.4694 118.213 35.4694H6.1413C5.70263 35.4694 5.31729 35.1748 5.20263 34.7521C5.08929 34.3281 5.27194 33.8801 5.65061 33.6574L33.6733 17.2748L61.6893 0.890778C61.9919 0.714778 62.3666 0.714778 62.6706 0.890778L118.644 33.6241C118.968 33.7828 119.189 34.1134 119.189 34.4974C119.189 35.0347 118.755 35.4694 118.217 35.4694Z" fill="#100F0D"/>
<path d="M23.1973 38.848H39.7639V35.4694H23.1973V38.848ZM40.7372 40.7921H22.2253C21.6879 40.7921 21.2506 40.3561 21.2506 39.8187V34.4974C21.2506 33.9601 21.6879 33.5254 22.2253 33.5254H40.7372C41.2732 33.5254 41.7092 33.9601 41.7092 34.4974V39.8187C41.7092 40.3561 41.2732 40.7921 40.7372 40.7921Z" fill="#100F0D"/>
<path d="M53.8933 38.848H70.4613V35.4694H53.8933V38.848ZM71.432 40.7921H52.9213C52.384 40.7921 51.9493 40.3561 51.9493 39.8187V34.4974C51.9493 33.9601 52.384 33.5254 52.9213 33.5254H71.432C71.9707 33.5254 72.4039 33.9601 72.4039 34.4974V39.8187C72.4039 40.3561 71.9707 40.7921 71.432 40.7921Z" fill="#100F0D"/>
<path d="M84.588 38.848H101.156V35.4694H84.588V38.848ZM102.129 40.7921H83.6173C83.0813 40.7921 82.644 40.3561 82.644 39.8187V34.4974C82.644 33.9601 83.0813 33.5254 83.6173 33.5254H102.129C102.667 33.5254 103.101 33.9601 103.101 34.4974V39.8187C103.101 40.3561 102.667 40.7921 102.129 40.7921Z" fill="#100F0D"/>
<path d="M57.7066 83.8801H66.6466V40.792H57.7066V83.8801ZM67.6199 85.8254H56.7346C56.1972 85.8254 55.7613 85.3907 55.7613 84.8534V39.8187C55.7613 39.2814 56.1972 38.848 56.7346 38.848H67.6199C68.1559 38.848 68.5906 39.2814 68.5906 39.8187V84.8534C68.5906 85.3907 68.1559 85.8254 67.6199 85.8254Z" fill="#100F0D"/>
<path d="M88.4079 83.8801H97.3439V40.792H88.4079V83.8801ZM98.3146 85.8254H87.4359C86.8986 85.8254 86.4653 85.3907 86.4653 84.8534V39.8187C86.4653 39.2814 86.8986 38.848 87.4359 38.848H98.3146C98.8546 38.848 99.288 39.2814 99.288 39.8187V84.8534C99.288 85.3907 98.8546 85.8254 98.3146 85.8254Z" fill="#100F0D"/>
<path d="M27.0106 83.8801H35.952V40.792H27.0106V83.8801ZM36.9226 85.8254H26.0386C25.5013 85.8254 25.0666 85.3907 25.0666 84.8534V39.8187C25.0666 39.2814 25.5013 38.848 26.0386 38.848H36.9226C37.4613 38.848 37.896 39.2814 37.896 39.8187V84.8534C37.896 85.3907 37.4613 85.8254 36.9226 85.8254Z" fill="#100F0D"/>
<path d="M23.1973 89.2014H39.7639V85.8254H23.1973V89.2014ZM40.7372 91.1468H22.2253C21.6879 91.1468 21.2506 90.7121 21.2506 90.1748V84.8534C21.2506 84.3161 21.6879 83.8801 22.2253 83.8801H40.7372C41.2732 83.8801 41.7092 84.3161 41.7092 84.8534V90.1748C41.7092 90.7121 41.2732 91.1468 40.7372 91.1468Z" fill="#100F0D"/>
<path d="M53.8933 89.2014H70.4613V85.8254H53.8933V89.2014ZM71.432 91.1468H52.9213C52.384 91.1468 51.9493 90.7121 51.9493 90.1748V84.8534C51.9493 84.3161 52.384 83.8801 52.9213 83.8801H71.432C71.9707 83.8801 72.4039 84.3161 72.4039 84.8534V90.1748C72.4039 90.7121 71.9707 91.1468 71.432 91.1468Z" fill="#100F0D"/>
<path d="M84.588 89.2014H101.156V85.8254H84.588V89.2014ZM102.129 91.1468H83.6173C83.0813 91.1468 82.644 90.7121 82.644 90.1748V84.8534C82.644 84.3161 83.0813 83.8801 83.6173 83.8801H102.129C102.667 83.8801 103.101 84.3161 103.101 84.8534V90.1748C103.101 90.7121 102.667 91.1468 102.129 91.1468Z" fill="#100F0D"/>
<path d="M12.8093 94.6521H107.048V91.1468H12.8093V94.6521ZM108.02 96.5974H11.8373C11.3013 96.5974 10.8653 96.1627 10.8653 95.6254V90.1748C10.8653 89.6374 11.3013 89.2014 11.8373 89.2014H108.02C108.556 89.2014 108.992 89.6374 108.992 90.1748V95.6254C108.992 96.1627 108.556 96.5974 108.02 96.5974Z" fill="#100F0D"/>
<path d="M2.62257 100.103H117.235V96.5974H2.62257V100.103ZM118.207 102.047H1.64926C1.11326 102.047 0.678558 101.612 0.678558 101.076V95.6254C0.678558 95.0881 1.11326 94.6521 1.64926 94.6521H118.207C118.745 94.6521 119.181 95.0881 119.181 95.6254V101.076C119.181 101.612 118.745 102.047 118.207 102.047Z" fill="#100F0D"/>
<path d="M62.18 14.6908C59.0907 14.6908 56.5786 17.2081 56.5786 20.3027C56.5786 23.3921 59.0907 25.9054 62.18 25.9054C65.2653 25.9054 67.776 23.3921 67.776 20.3027C67.776 17.2081 65.2653 14.6908 62.18 14.6908ZM62.18 27.8494C58.0187 27.8494 54.6346 24.4641 54.6346 20.3027C54.6346 16.1361 58.0187 12.7454 62.18 12.7454C66.3373 12.7454 69.72 16.1361 69.72 20.3027C69.72 24.4641 66.3373 27.8494 62.18 27.8494Z" fill="#100F0D"/>
</svg>
